<svg width="85" height="85" viewBox="0 0 85 85" fill="none" xmlns="http://www.w3.org/2000/svg">
<g filter="url(#filter0_d_46913_216)">
<path fill-rule="evenodd" clip-rule="evenodd" d="M42.0692 74.2495C59.7447 74.2495 74.0735 59.9207 74.0735 42.2452C74.0735 24.5698 59.7447 10.241 42.0692 10.241C24.3937 10.241 10.0649 24.5698 10.0649 42.2452C10.0649 59.9207 24.3937 74.2495 42.0692 74.2495Z" fill="#C7A17A"/>
</g>
<path d="M47.5801 30.5814C47.1441 30.1268 46.4185 30.1268 45.9672 30.5814C45.5312 31.0206 45.5312 31.7517 45.9672 32.1899L54.1456 40.4286H27.158C26.5288 40.4297 26.0288 40.9334 26.0288 41.5671C26.0288 42.2009 26.5288 42.721 27.158 42.721H54.1456L45.9672 50.9444C45.5312 51.399 45.5312 52.131 45.9672 52.5692C46.4185 53.0238 47.1451 53.0238 47.5801 52.5692L57.6947 42.3801C58.1459 41.9408 58.1459 41.2098 57.6947 40.7716L47.5801 30.5814Z" fill="#F9FBFF"/>
<defs>
<filter id="filter0_d_46913_216" x="0.0649414" y="0.240967" width="84.0088" height="84.0085" filterUnits="userSpaceOnUse" color-interpolation-filters="sRGB">
<feFlood flood-opacity="0" result="BackgroundImageFix"/>
<feColorMatrix in="SourceAlpha" type="matrix" values="0 0 0 0 0 0 0 0 0 0 0 0 0 0 0 0 0 0 127 0" result="hardAlpha"/>
<feOffset/>
<feGaussianBlur stdDeviation="5"/>
<feColorMatrix type="matrix" values="0 0 0 0 0 0 0 0 0 0 0 0 0 0 0 0 0 0 0.1 0"/>
<feBlend mode="normal" in2="BackgroundImageFix" result="effect1_dropShadow_46913_216"/>
<feBlend mode="normal" in="SourceGraphic" in2="effect1_dropShadow_46913_216" result="shape"/>
</filter>
</defs>
</svg>
