<svg width="39" height="38" viewBox="0 0 39 38" fill="none" xmlns="http://www.w3.org/2000/svg">
<rect x="0.276367" y="12" width="23.9316" height="24" fill="#415167"/>
<path d="M4.5817 16.6639H17.9532C17.9935 16.6639 18.0302 16.6793 18.068 16.6909L18.3966 15.5896C18.5012 15.2394 18.818 15 19.177 15H20.8087C21.034 15 21.2166 15.1862 21.2166 15.416V16.2479C21.2166 16.4776 21.034 16.6639 20.8087 16.6639H19.7813L17.2325 25.2046L18.1844 26.337C18.5607 26.7846 18.7301 27.4013 18.5569 27.9637C18.3355 28.683 17.7129 29.1429 16.9951 29.1429H5.30751C5.08222 29.1429 4.89957 28.9566 4.89957 28.7269V27.895C4.89957 27.6652 5.08222 27.479 5.30751 27.479H16.9952L15.702 25.9406C15.6695 25.9019 15.6456 25.8583 15.621 25.8151H7.71602C7.08375 25.8151 6.50838 25.4428 6.23915 24.8594L3.39257 18.6913C3.31092 18.5137 3.2679 18.3167 3.2679 18.1213V18.0035C3.2679 17.2637 3.85611 16.6639 4.5817 16.6639Z" fill="#F9FBFF"/>
<path d="M16.4088 33.0001C15.5238 33.0001 14.8063 32.2805 14.8063 31.3929C14.8063 30.5053 15.5238 29.7858 16.4088 29.7858C17.2939 29.7858 18.0114 30.5053 18.0114 31.3929C18.0114 32.2805 17.2939 33.0001 16.4088 33.0001Z" fill="white"/>
<path d="M6.79355 33.0001C5.90848 33.0001 5.19099 32.2805 5.19099 31.3929C5.19099 30.5053 5.90848 29.7858 6.79355 29.7858C7.67863 29.7858 8.39612 30.5053 8.39612 31.3929C8.39612 32.2805 7.67863 33.0001 6.79355 33.0001Z" fill="white"/>
<path fill-rule="evenodd" clip-rule="evenodd" d="M26.2023 22C31.7094 22 36.1738 17.5228 36.1738 12C36.1738 6.47715 31.7094 2 26.2023 2C20.6952 2 16.2308 6.47715 16.2308 12C16.2308 17.5228 20.6952 22 26.2023 22Z" fill="#C7A17A"/>
<path d="M24.3543 16.8182C24.1863 16.8182 24.0603 16.7809 23.9763 16.7062C23.9016 16.6222 23.8643 16.5149 23.8643 16.3842C23.8643 16.3096 23.883 16.2349 23.9203 16.1602C23.9576 16.0856 24.009 16.0156 24.0743 15.9502L27.3503 12.4082C27.8543 11.8669 28.2183 11.3676 28.4423 10.9102C28.6663 10.4436 28.7783 9.96757 28.7783 9.48224C28.7783 8.87557 28.5963 8.41357 28.2323 8.09624C27.8683 7.7789 27.3363 7.62024 26.6363 7.62024C26.1696 7.62024 25.7356 7.69957 25.3343 7.85824C24.9423 8.00757 24.5643 8.23157 24.2003 8.53024C24.107 8.6049 24.0183 8.64224 23.9343 8.64224C23.8596 8.64224 23.7943 8.6189 23.7383 8.57224C23.6823 8.51624 23.6403 8.4509 23.6123 8.37624C23.5936 8.29224 23.5936 8.20824 23.6123 8.12424C23.6403 8.04024 23.6916 7.96557 23.7663 7.90024C24.1303 7.5829 24.569 7.32624 25.0823 7.13024C25.5956 6.93424 26.1276 6.83624 26.6783 6.83624C27.313 6.83624 27.8496 6.9389 28.2883 7.14424C28.7363 7.34024 29.077 7.63424 29.3103 8.02624C29.5436 8.41824 29.6603 8.88957 29.6603 9.44024C29.6603 9.83224 29.595 10.2196 29.4643 10.6022C29.3336 10.9849 29.1376 11.3722 28.8763 11.7642C28.6243 12.1562 28.2976 12.5669 27.8963 12.9962L24.7463 16.3282V16.0622H29.7443C29.875 16.0622 29.973 16.0949 30.0383 16.1602C30.113 16.2162 30.1503 16.3049 30.1503 16.4262C30.1503 16.5569 30.113 16.6549 30.0383 16.7202C29.973 16.7856 29.875 16.8182 29.7443 16.8182H24.3543Z" fill="#F9FBFF"/>
</svg>
