<?xml version="1.0" standalone="no"?>
<!DOCTYPE svg PUBLIC "-//W3C//DTD SVG 20010904//EN"
 "http://www.w3.org/TR/2001/REC-SVG-20010904/DTD/svg10.dtd">
<svg version="1.0" xmlns="http://www.w3.org/2000/svg"
 width="512.000000pt" height="512.000000pt" viewBox="0 0 512.000000 512.000000"
 preserveAspectRatio="xMidYMid meet">
<metadata>
Created by potrace 1.16, written by Peter Selinger 2001-2019
</metadata>
<g transform="translate(0.000000,512.000000) scale(0.100000,-0.100000)"
fill="#000000" stroke="none">
<path d="M1598 4617 c-135 -46 -273 -172 -337 -306 -32 -68 -36 -85 -36 -156
0 -52 7 -99 18 -132 24 -69 93 -161 157 -212 l52 -41 -324 0 c-365 0 -372 -1
-415 -76 -22 -38 -23 -45 -23 -402 0 -407 1 -413 69 -457 20 -13 60 -26 89
-30 l52 -7 0 -997 0 -998 23 -43 c16 -30 37 -51 67 -67 l43 -23 1527 0 1527 0
43 23 c30 16 51 37 67 67 l23 43 0 682 0 682 -23 43 c-26 50 -90 90 -141 90
-42 0 -115 -38 -140 -73 -21 -28 -21 -41 -24 -628 l-2 -599 -1330 0 -1330 0 0
900 0 900 1543 2 1543 3 41 27 c73 48 73 50 73 459 l0 362 -25 42 c-43 74 -49
75 -415 75 l-322 0 51 40 c171 135 223 335 134 516 -35 71 -135 181 -214 233
-164 110 -382 110 -563 1 -147 -89 -291 -240 -427 -450 -46 -71 -86 -129 -89
-129 -3 0 -42 57 -88 127 -177 273 -364 445 -551 509 -93 32 -230 31 -323 0z
m290 -353 c74 -49 123 -95 194 -183 82 -102 182 -255 169 -259 -32 -11 -392
103 -503 159 -73 36 -167 108 -183 140 -14 26 -14 32 -1 58 23 44 111 118 153
128 52 13 108 -1 171 -43z m1603 -12 c27 -24 57 -58 65 -73 13 -26 13 -32 -1
-58 -16 -32 -110 -104 -184 -141 -112 -56 -470 -169 -503 -158 -14 5 115 196
199 293 38 44 101 103 141 132 119 85 193 86 283 5z m609 -967 l0 -155 -1540
0 -1540 0 0 155 0 155 1540 0 1540 0 0 -155z"/>
</g>
</svg>
