<svg width="53" height="53" viewBox="0 0 53 53" fill="none" xmlns="http://www.w3.org/2000/svg">
<path d="M26.0757 37.9957C32.227 37.9957 37.2138 33.0089 37.2138 26.8576C37.2138 20.7062 32.227 15.7195 26.0757 15.7195C19.9243 15.7195 14.9376 20.7062 14.9376 26.8576C14.9376 33.0089 19.9243 37.9957 26.0757 37.9957Z" stroke="#DADADA" stroke-width="2" stroke-linecap="round" stroke-linejoin="round"/>
<path d="M1.01498 37.9957V15.7195C1.01498 8.03026 7.24837 1.79688 14.9376 1.79688H37.2138C44.903 1.79688 51.1365 8.03026 51.1365 15.7195V37.9957C51.1365 45.6849 44.903 51.9183 37.2138 51.9183H14.9376C7.24837 51.9183 1.01498 45.6849 1.01498 37.9957Z" stroke="#DADADA" stroke-width="2"/>
<path d="M41.3906 11.5711L41.4194 11.5391" stroke="#DADADA" stroke-width="2" stroke-linecap="round" stroke-linejoin="round"/>
</svg>
