<?xml version="1.0" standalone="no"?>
<!DOCTYPE svg PUBLIC "-//W3C//DTD SVG 20010904//EN"
 "http://www.w3.org/TR/2001/REC-SVG-20010904/DTD/svg10.dtd">
<svg version="1.0" xmlns="http://www.w3.org/2000/svg"
 width="512.000000pt" height="512.000000pt" viewBox="0 0 512.000000 512.000000"
 preserveAspectRatio="xMidYMid meet">
<metadata>
Created by potrace 1.16, written by Peter Selinger 2001-2019
</metadata>
<g transform="translate(0.000000,512.000000) scale(0.100000,-0.100000)"
fill="#000000" stroke="none">
<path d="M115 5106 c-17 -7 -45 -30 -63 -51 -73 -83 -71 -128 19 -409 167
-525 319 -895 443 -1080 45 -66 359 -385 1723 -1747 1082 -1081 1688 -1679
1725 -1702 70 -46 183 -92 265 -107 38 -8 108 -11 180 -8 207 9 345 70 493
218 148 148 209 286 218 493 3 72 0 142 -8 180 -15 82 -61 195 -107 265 -23
37 -621 643 -1702 1725 -1362 1364 -1681 1678 -1747 1723 -185 124 -555 276
-1080 443 -232 75 -296 85 -359 57z m680 -586 c118 -42 373 -146 387 -159 4
-4 -89 -103 -206 -220 l-214 -214 -15 34 c-8 19 -31 72 -51 118 -35 79 -74
184 -166 443 l-38 107 91 -34 c51 -18 146 -52 212 -75z m2160 -1850 l1440
-1440 -78 -77 -77 -78 -1442 1442 -1443 1443 75 75 c41 41 77 75 80 75 3 0
653 -648 1445 -1440z m-350 -350 l1440 -1440 -78 -77 -77 -78 -1442 1442
-1443 1443 75 75 c41 41 77 75 80 75 3 0 653 -648 1445 -1440z m2097 -1437
c33 -74 31 -199 -4 -275 -34 -74 -112 -152 -186 -186 -76 -35 -201 -37 -274
-4 -27 12 -48 25 -48 29 0 10 473 483 483 483 4 0 17 -21 29 -47z"/>
</g>
</svg>
