<?xml version="1.0" standalone="no"?>
<!DOCTYPE svg PUBLIC "-//W3C//DTD SVG 20010904//EN"
 "http://www.w3.org/TR/2001/REC-SVG-20010904/DTD/svg10.dtd">
<svg version="1.0" xmlns="http://www.w3.org/2000/svg"
 width="512.000000pt" height="512.000000pt" viewBox="0 0 512.000000 512.000000"
 preserveAspectRatio="xMidYMid meet">
<metadata>
Created by potrace 1.16, written by Peter Selinger 2001-2019
</metadata>
<g transform="translate(0.000000,512.000000) scale(0.100000,-0.100000)"
fill="#000000" stroke="none">
<path d="M2439 4432 c-163 -43 -290 -171 -334 -337 -21 -82 -21 -358 0 -440
24 -91 72 -170 142 -234 47 -43 63 -65 63 -85 l0 -26 -153 0 c-166 0 -239 -13
-314 -55 -24 -13 -43 -22 -43 -20 0 2 26 29 59 59 41 40 68 77 92 129 33 71
34 75 37 233 3 126 0 175 -12 225 -43 164 -167 278 -339 310 -214 40 -436
-118 -477 -340 -15 -82 -12 -272 6 -351 19 -83 71 -169 139 -227 76 -65 66
-71 -127 -75 -155 -3 -165 -5 -216 -31 -67 -35 -124 -92 -159 -159 l-28 -53
-3 -242 -3 -242 -48 -34 c-60 -43 -107 -114 -121 -182 -7 -35 -10 -226 -8
-581 3 -524 3 -529 25 -574 34 -68 75 -112 134 -145 l54 -30 1755 0 1755 0 54
30 c59 33 100 77 134 145 22 45 22 50 25 574 2 352 -1 547 -8 580 -14 66 -68
147 -124 185 l-45 31 -3 238 c-3 232 -4 238 -29 293 -34 72 -96 134 -168 168
-52 24 -68 26 -214 29 -188 4 -198 10 -122 75 68 58 120 144 139 227 18 79 21
269 6 350 -33 174 -170 309 -347 342 -158 29 -344 -59 -426 -202 -47 -82 -59
-155 -55 -334 3 -158 4 -162 37 -233 24 -52 51 -89 92 -129 33 -30 59 -58 59
-60 0 -3 -19 6 -42 20 -74 43 -147 56 -315 56 l-153 0 0 28 c0 21 14 40 58 78
69 62 121 145 144 233 20 78 25 339 7 423 -18 87 -66 175 -128 236 -123 123
-284 167 -452 124z m269 -167 c60 -33 110 -84 144 -147 22 -41 23 -54 23 -243
0 -198 0 -201 -27 -251 -15 -28 -50 -72 -78 -97 -127 -114 -317 -108 -439 14
-77 77 -86 109 -89 322 -3 184 -3 189 23 245 40 88 112 153 205 183 14 5 61 7
105 6 66 -3 90 -8 133 -32z m-1021 -239 c56 -28 105 -79 129 -131 22 -46 24
-63 24 -211 0 -152 -1 -163 -26 -212 -79 -160 -290 -200 -421 -79 -81 75 -88
97 -88 292 0 149 2 175 20 210 27 55 96 120 148 139 53 20 169 16 214 -8z
m1978 -1 c50 -25 105 -79 130 -130 18 -35 20 -61 20 -210 0 -195 -7 -217 -88
-292 -131 -121 -342 -81 -421 79 -25 49 -26 60 -26 212 0 148 2 165 24 211 31
65 86 116 153 141 51 19 157 13 208 -11z m-1005 -793 c0 -68 -2 -76 -29 -103
-23 -23 -38 -29 -71 -29 -33 0 -48 6 -71 29 -27 27 -29 35 -29 103 l0 73 100
0 100 0 0 -73z m-1010 -106 c0 -69 -26 -106 -75 -106 -55 0 -78 27 -83 99 l-4
61 81 0 81 0 0 -54z m1978 -7 c-5 -72 -28 -99 -83 -99 -49 0 -75 37 -75 106
l0 54 81 0 81 0 -4 -61z m-1312 24 c29 -89 68 -136 139 -169 132 -62 293 6
338 141 l14 40 149 3 c93 2 165 -2 192 -9 64 -18 116 -60 146 -120 26 -53 26
-53 26 -296 l0 -244 -102 3 -103 3 -3 157 c-2 156 -3 157 -29 177 -35 28 -59
26 -94 -8 l-29 -29 0 -151 0 -151 -402 2 -403 3 -3 157 c-2 156 -3 157 -29
177 -14 12 -33 21 -43 21 -10 0 -29 -9 -43 -21 -26 -20 -27 -21 -29 -177 l-3
-157 -102 -3 -103 -3 0 248 c1 238 2 250 23 292 13 25 39 58 59 73 60 49 98
57 271 58 142 0 158 -2 163 -17z m-961 -122 c10 -44 79 -117 129 -136 28 -11
64 -16 100 -13 l56 3 0 -187 0 -188 -205 0 -205 0 0 126 c0 69 -4 134 -10 144
-13 25 -65 41 -95 30 -38 -15 -45 -41 -45 -174 l0 -126 -80 0 -80 0 0 195 c0
209 6 243 53 294 45 49 90 61 239 61 l136 0 7 -29z m2730 10 c48 -22 79 -54
100 -103 12 -29 15 -79 15 -233 l0 -195 -80 0 -80 0 0 126 c0 133 -7 159 -45
174 -30 11 -82 -5 -95 -30 -6 -10 -10 -75 -10 -144 l0 -126 -205 0 -205 0 0
188 0 187 56 -3 c36 -3 72 2 100 13 50 19 119 92 129 136 l7 29 136 0 c112 0
144 -4 177 -19z m226 -714 c71 -47 70 -30 67 -624 -3 -523 -3 -532 -24 -560
-12 -15 -36 -37 -55 -48 -34 -20 -52 -20 -1739 -20 -1687 0 -1705 0 -1739 20
-19 11 -43 33 -55 48 -21 28 -21 37 -24 565 -2 522 -2 538 18 570 11 18 34 41
52 52 33 20 54 20 1749 20 l1716 0 34 -23z"/>
<path d="M1326 2189 c-10 -6 -47 -70 -82 -142 l-64 -132 -147 -21 c-125 -19
-150 -25 -165 -44 -36 -44 -25 -66 89 -182 l107 -108 -23 -145 c-22 -135 -22
-146 -7 -170 31 -47 56 -43 196 29 70 36 133 66 138 66 5 0 61 -27 123 -61
138 -73 156 -77 192 -49 33 26 34 38 5 203 l-22 128 107 107 c115 115 125 137
88 183 -16 20 -38 26 -162 44 l-144 20 -66 129 c-36 71 -74 135 -85 143 -21
16 -52 16 -78 2z m83 -318 c44 -87 57 -96 156 -107 33 -3 64 -9 68 -11 5 -3
-21 -36 -57 -73 -36 -37 -66 -72 -66 -77 0 -4 7 -46 15 -93 8 -47 15 -86 15
-88 0 -1 -33 16 -73 38 -41 22 -84 40 -97 40 -14 0 -59 -18 -103 -41 -74 -39
-78 -39 -73 -17 10 42 26 141 26 156 0 8 -30 45 -66 83 -45 45 -62 70 -53 73
8 2 47 9 87 15 41 5 82 17 91 25 9 8 32 47 51 86 19 38 35 70 37 70 1 0 21
-35 42 -79z"/>
<path d="M2522 2184 c-13 -8 -51 -73 -86 -142 l-64 -127 -128 -18 c-153 -21
-180 -30 -192 -65 -15 -43 3 -71 109 -172 l100 -95 -25 -144 c-29 -161 -25
-187 28 -206 25 -9 43 -2 162 60 l134 70 133 -69 c147 -77 174 -81 202 -27 13
27 12 42 -11 173 l-26 143 101 95 c107 101 128 134 110 174 -16 34 -39 42
-188 62 l-133 18 -64 127 c-60 122 -90 159 -124 159 -9 0 -26 -7 -38 -16z m78
-304 c19 -39 42 -78 51 -86 9 -8 48 -20 85 -25 38 -6 75 -13 83 -15 9 -3 -7
-26 -48 -68 -68 -71 -70 -82 -50 -190 6 -32 8 -60 6 -63 -3 -2 -37 12 -76 31
-39 20 -80 36 -91 36 -11 0 -52 -16 -91 -36 -39 -19 -73 -33 -76 -30 -3 3 -1
31 6 62 21 107 18 119 -50 190 -41 42 -57 65 -48 68 8 2 45 9 83 15 37 5 76
17 85 25 9 8 32 47 51 86 19 38 37 70 40 70 3 0 21 -32 40 -70z"/>
<path d="M3716 2187 c-11 -8 -49 -72 -85 -143 l-66 -129 -144 -21 c-123 -18
-147 -24 -163 -44 -36 -45 -25 -67 89 -182 l107 -107 -22 -128 c-12 -70 -22
-140 -22 -155 0 -28 40 -68 68 -68 8 0 74 30 146 67 l131 66 131 -68 c143 -74
169 -78 200 -30 15 24 15 35 -7 170 l-23 145 107 108 c114 116 125 138 90 181
-15 18 -42 26 -138 41 -66 11 -132 20 -146 20 -24 0 -33 12 -92 134 -37 77
-74 139 -85 145 -28 15 -54 14 -76 -2z m128 -396 c8 -7 48 -17 88 -23 40 -5
79 -12 87 -14 9 -3 -8 -28 -53 -73 -36 -38 -66 -75 -66 -83 0 -15 16 -114 26
-157 5 -22 2 -22 -70 18 -41 22 -87 41 -102 41 -15 0 -60 -18 -100 -41 -41
-22 -74 -39 -74 -37 0 2 7 41 15 88 8 47 15 89 15 93 0 5 -30 40 -66 77 -36
37 -62 70 -57 73 4 2 35 8 68 11 100 11 112 20 157 110 l40 81 38 -76 c21 -41
45 -81 54 -88z"/>
</g>
</svg>
