<svg width="430" height="274" viewBox="0 0 430 274" fill="none" xmlns="http://www.w3.org/2000/svg">
<path fill-rule="evenodd" clip-rule="evenodd" d="M0 70C0 67.2386 2.23857 65 5 65H85C93.2843 65 100 71.7157 100 80V100C100 108.284 93.2843 115 85 115C93.2843 115 100 121.716 100 130V150C100 158.284 93.2843 165 85 165H5C2.23858 165 0 162.761 0 160V115V70ZM20 90C20 87.2386 22.2386 85 25 85H75C77.7614 85 80 87.2386 80 90V100C80 102.761 77.7614 105 75 105H25C22.2386 105 20 102.761 20 100V90ZM20 130C20 127.239 22.2386 125 25 125H75C77.7614 125 80 127.239 80 130V140C80 142.761 77.7614 145 75 145H25C22.2386 145 20 142.761 20 140V130Z" fill="white"/>
<path fill-rule="evenodd" clip-rule="evenodd" d="M235 65C226.716 65 220 71.7157 220 80V150C220 158.284 226.716 165 235 165H305C313.284 165 320 158.284 320 150V80C320 71.7157 313.284 65 305 65H235ZM245 85C242.239 85 240 87.2386 240 90V140C240 142.761 242.239 145 245 145H295C297.761 145 300 142.761 300 140V90C300 87.2386 297.761 85 295 85H245Z" fill="white"/>
<rect x="110" y="65" width="100" height="209" rx="15" fill="white"/>
<path d="M156.898 2.45453C158.716 1.01606 161.284 1.01606 163.102 2.45453L218.872 46.5788C222.59 49.5198 220.51 55.5 215.77 55.5H104.23C99.4901 55.5 97.4105 49.5198 101.128 46.5788L156.898 2.45453Z" fill="white"/>
<path fill-rule="evenodd" clip-rule="evenodd" d="M0 179C0 176.239 2.23857 174 5 174H15C17.7614 174 20 176.239 20 179V214H80V179C80 176.239 82.2386 174 85 174H95C97.7614 174 100 176.239 100 179V219V229V269C100 271.761 97.7614 274 95 274H85C82.2386 274 80 271.761 80 269V234H20V269C20 271.761 17.7614 274 15 274H5C2.23857 274 0 271.761 0 269V229V219V179Z" fill="white"/>
<path fill-rule="evenodd" clip-rule="evenodd" d="M335 174C332.239 174 330 176.239 330 179V189V219V229V259V269C330 271.761 332.239 274 335 274H345H425C427.761 274 430 271.761 430 269V259C430 256.239 427.761 254 425 254H350V234H425C427.761 234 430 231.761 430 229V219C430 216.239 427.761 214 425 214H350V194H425C427.761 194 430 191.761 430 189V179C430 176.239 427.761 174 425 174H345H335Z" fill="white"/>
<path fill-rule="evenodd" clip-rule="evenodd" d="M225 174C222.239 174 220 176.239 220 179V269C220 271.761 222.239 274 225 274H235C237.761 274 240 271.761 240 269V205.142L266.452 231.594C267.448 232.59 268.76 233.078 270.065 233.058C271.37 233.078 272.682 232.59 273.678 231.594L300 205.272V269C300 271.761 302.239 274 305 274H315C317.761 274 320 271.761 320 269V179C320 176.239 317.761 174 315 174H305C303.387 174 301.953 174.764 301.038 175.949L270.065 206.923L238.678 175.536C238.264 175.122 237.797 174.797 237.298 174.558C236.61 174.202 235.828 174 235 174H225Z" fill="white"/>
<path fill-rule="evenodd" clip-rule="evenodd" d="M335 65C332.239 65 330 67.2386 330 70V160C330 162.761 332.239 165 335 165H345C347.761 165 350 162.761 350 160V125H410V160C410 162.761 412.239 165 415 165H425C427.761 165 430 162.761 430 160V130C430 121.716 423.284 115 415 115C423.284 115 430 108.284 430 100V70C430 67.2386 427.761 65 425 65H415C412.239 65 410 67.2386 410 70V105H350V70C350 67.2386 347.761 65 345 65H335Z" fill="white"/>
</svg>
